<?xml version="1.0" encoding="UTF-8" standalone="no"?>
<svg
   height="24"
   viewBox="0 0 24 24"
   width="24"
   version="1.1"
   id="svg18"
   sodipodi:docname="location_multi_3.svg"
   inkscape:version="1.4.2 (f4327f4, 2025-05-13)"
   xmlns:inkscape="http://www.inkscape.org/namespaces/inkscape"
   xmlns:sodipodi="http://sodipodi.sourceforge.net/DTD/sodipodi-0.dtd"
   xmlns="http://www.w3.org/2000/svg"
   xmlns:svg="http://www.w3.org/2000/svg">
  <sodipodi:namedview
     id="namedview380"
     pagecolor="#ffffff"
     bordercolor="#666666"
     borderopacity="1.0"
     inkscape:showpageshadow="2"
     inkscape:pageopacity="0.0"
     inkscape:pagecheckerboard="0"
     inkscape:deskcolor="#d1d1d1"
     showgrid="false"
     inkscape:zoom="22.421177"
     inkscape:cx="1.2488194"
     inkscape:cy="8.4518311"
     inkscape:window-width="2560"
     inkscape:window-height="1351"
     inkscape:window-x="2551"
     inkscape:window-y="-9"
     inkscape:window-maximized="1"
     inkscape:current-layer="g16" />
  <defs
     id="defs22" />
  <g
     transform="translate(0 -8)"
     id="g16">
    <path
       d="m10.046123 9.0868999c-2.4758223.04097-4.6451739 1.1027001-5.5202662 3.6849241-.8683354 2.562284 1.029111 7.187616 5.2115666 5.130684 6.9466816-3.416378 6.9432226.846298 8.6798926.846298 2.142202 0 4.339947-1.493011 4.339947-3.402825 0-1.70819.08467-3.343783-.871621-4.284384-1.73667-1.7081901-2.612274.867394-7.281667-1.040243-1.488137-.6079641-3.072358-.9590361-4.557852-.9344541z"
       style="fill:#a6cca6;fill-rule:evenodd;stroke:#696b67;stroke-width:.878466;stroke-linecap:round;stroke-linejoin:round"
       id="path2" />
    <path
       d="m 8.7495024,13.067846 c -2.4758227,0.04097 -4.6451743,1.1027 -5.5202666,3.684924 -0.8683354,2.562284 1.029111,7.187616 5.2115666,5.130684 6.9466826,-3.416378 6.9432236,0.846298 8.6798936,0.846298 2.142202,0 4.339947,-1.493011 4.339947,-3.402825 0,-1.70819 0.08467,-3.343783 -0.871621,-4.284384 -1.73667,-1.70819 -2.612274,0.867394 -7.281667,-1.040243 -1.488137,-0.607964 -3.072359,-0.959036 -4.5578526,-0.934454 z"
       style="fill:#a6cca6;fill-rule:evenodd;stroke:#696b67;stroke-width:0.878466;stroke-linecap:round;stroke-linejoin:round"
       id="path2-6" />
    <path
       d="m 7.6873491,17.346737 c -2.4758223,0.04097 -4.6451739,1.1027 -5.5202661,3.684924 -0.8683355,2.562284 1.0291109,7.187616 5.2115665,5.130684 6.9466805,-3.416378 6.9432215,0.846298 8.6798915,0.846298 2.142202,0 4.339947,-1.493011 4.339947,-3.402825 0,-1.70819 0.08467,-3.343783 -0.871621,-4.284384 -1.73667,-1.70819 -2.612274,0.867394 -7.281667,-1.040243 -1.488137,-0.607964 -3.0723569,-0.959036 -4.5578509,-0.934454 z"
       style="fill:#a6cca6;fill-rule:evenodd;stroke:#696b67;stroke-width:0.878466;stroke-linecap:round;stroke-linejoin:round"
       id="path2-7" />
    <path
       d="m 6.6327639,21.832143 c -2.475822,0.04097 -4.645174,1.1027 -5.520266,3.684924 -0.86833562,2.562284 1.029111,7.187616 5.211566,5.130684 6.9466821,-3.416378 6.9432231,0.846298 8.6798931,0.846298 2.142202,0 4.339947,-1.493011 4.339947,-3.402825 0,-1.70819 0.08467,-3.343783 -0.871621,-4.284384 -1.73667,-1.70819 -2.612274,0.867394 -7.281667,-1.040243 C 9.7024789,22.158633 8.1182579,21.807561 6.6327639,21.832143 Z"
       style="fill:#72b072;fill-rule:evenodd;stroke:#41433f;stroke-width:0.878;stroke-linecap:round;stroke-linejoin:round"
       id="path4" />
    <text
       xml:space="preserve"
       style="font-weight:bold;font-size:28.5399px;font-family:'Century Gothic';-inkscape-font-specification:'Century Gothic Bold';text-align:start;writing-mode:lr-tb;direction:ltr;text-anchor:start;fill:#9932cc;stroke:#ffffff;stroke-width:0.433397;stroke-linecap:round;paint-order:stroke fill markers"
       x="24.265047"
       y="30.507366"
       id="text1"><tspan
         sodipodi:role="line"
         id="tspan1"
         x="24.265047"
         y="30.507366"
         style="direction:rtl;stroke-width:0.433397">3</tspan></text>
  </g>
</svg>
