<?xml version="1.0" encoding="UTF-8" standalone="no"?>
<!-- Uploaded to: SVG Repo, www.svgrepo.com, Generator: SVG Repo Mixer Tools -->

<svg
   width="800px"
   height="800px"
   viewBox="0 0 24 24"
   fill="#1c274c"
   version="1.1"
   id="svg4"
   sodipodi:docname="main_menu_copy.svg"
   inkscape:version="1.4.2 (f4327f4, 2025-05-13)"
   xmlns:inkscape="http://www.inkscape.org/namespaces/inkscape"
   xmlns:sodipodi="http://sodipodi.sourceforge.net/DTD/sodipodi-0.dtd"
   xmlns="http://www.w3.org/2000/svg"
   xmlns:svg="http://www.w3.org/2000/svg">
  <defs
     id="defs4" />
  <sodipodi:namedview
     id="namedview4"
     pagecolor="#ffffff"
     bordercolor="#000000"
     borderopacity="0.25"
     inkscape:showpageshadow="2"
     inkscape:pageopacity="0.0"
     inkscape:pagecheckerboard="0"
     inkscape:deskcolor="#d1d1d1"
     inkscape:zoom="1.41625"
     inkscape:cx="399.64695"
     inkscape:cy="400"
     inkscape:window-width="2560"
     inkscape:window-height="1351"
     inkscape:window-x="2551"
     inkscape:window-y="-9"
     inkscape:window-maximized="1"
     inkscape:current-layer="svg4" />
  <path
     d="M8.42229 20.6181C10.1779 21.5395 11.0557 22.0001 12 22.0001V12.0001L2.63802 7.07275C2.62423 7.09491 2.6107 7.11727 2.5974 7.13986C2 8.15436 2 9.41678 2 11.9416V12.0586C2 14.5834 2 15.8459 2.5974 16.8604C3.19479 17.8749 4.27063 18.4395 6.42229 19.5686L8.42229 20.6181Z"
     fill="param(fill)"
     id="path1"
     style="fill-opacity:1" />
  <path
     opacity="0.7"
     d="M17.5774 4.43152L15.5774 3.38197C13.8218 2.46066 12.944 2 11.9997 2C11.0554 2 10.1776 2.46066 8.42197 3.38197L6.42197 4.43152C4.31821 5.53552 3.24291 6.09982 2.6377 7.07264L11.9997 12L21.3617 7.07264C20.7564 6.09982 19.6811 5.53552 17.5774 4.43152Z"
     fill="param(fill)"
     id="path2"
     style="fill-opacity:1" />
  <path
     opacity="0.5"
     d="M21.4026 7.13986C21.3893 7.11727 21.3758 7.09491 21.362 7.07275L12 12.0001V22.0001C12.9443 22.0001 13.8221 21.5395 15.5777 20.6181L17.5777 19.5686C19.7294 18.4395 20.8052 17.8749 21.4026 16.8604C22 15.8459 22 14.5834 22 12.0586V11.9416C22 9.41678 22 8.15436 21.4026 7.13986Z"
     fill="param(fill)"
     id="path3"
     style="fill-opacity:1" />
  <path
     d="M 6.32334,4.48382 C 6.35617,4.46658 6.38926,4.44922 6.42261,4.43172 L 7.91614,3.64795 17.0169,8.65338 21.0406,6.64152 c 0.1377,0.15593 0.2574,0.32023 0.3623,0.49842 0.1496,0.25402 0.2617,0.52358 0.3458,0.82461 l -3.9984,1.99918 v 3.03647 c 0,0.4142 -0.3358,0.75 -0.75,0.75 -0.4142,0 -0.75,-0.3358 -0.75,-0.75 v -2.2865 l -3.5,1.75 v 9.4405 c -0.2569,0.064 -0.5011,0.096 -0.75,0.096 -0.2488,0 -0.4931,-0.032 -0.75,-0.096 V 12.4637 L 2.25195,7.96455 C 2.33601,7.66352 2.44813,7.39396 2.59771,7.13994 2.70264,6.96175 2.82232,6.79745 2.96001,6.64152 l 9.04029,4.52018 3.3862,-1.69313 z"
     fill="param(fill)"
     id="path4"
     style="display:inline;fill-opacity:1" />
</svg>
