<?xml version="1.0" encoding="UTF-8" standalone="no"?>
<!-- Uploaded to: SVG Repo, www.svgrepo.com, Generator: SVG Repo Mixer Tools -->

<svg
   width="800px"
   height="800px"
   viewBox="0 0 24 24"
   fill="#1C274C"
   version="1.1"
   id="svg2"
   sodipodi:docname="main_menu_send.svg"
   inkscape:version="1.4.2 (f4327f4, 2025-05-13)"
   xmlns:inkscape="http://www.inkscape.org/namespaces/inkscape"
   xmlns:sodipodi="http://sodipodi.sourceforge.net/DTD/sodipodi-0.dtd"
   xmlns="http://www.w3.org/2000/svg"
   xmlns:svg="http://www.w3.org/2000/svg">
  <defs
     id="defs2" />
  <sodipodi:namedview
     id="namedview2"
     pagecolor="#ffffff"
     bordercolor="#000000"
     borderopacity="0.25"
     inkscape:showpageshadow="2"
     inkscape:pageopacity="0.0"
     inkscape:pagecheckerboard="0"
     inkscape:deskcolor="#d1d1d1"
     inkscape:zoom="1.41625"
     inkscape:cx="399.64695"
     inkscape:cy="400"
     inkscape:window-width="2560"
     inkscape:window-height="1351"
     inkscape:window-x="2551"
     inkscape:window-y="-9"
     inkscape:window-maximized="1"
     inkscape:current-layer="svg2" />
  <path
     opacity="0.5"
     fill-rule="evenodd"
     clip-rule="evenodd"
     d="M3.46447 20.5355C4.92893 22 7.28595 22 12 22C16.714 22 19.0711 22 20.5355 20.5355C22 19.0711 22 16.714 22 12C22 7.28595 22 4.92893 20.5355 3.46447C19.0711 2 16.714 2 12 2C7.28595 2 4.92893 2 3.46447 3.46447C2 4.92893 2 7.28595 2 12C2 16.714 2 19.0711 3.46447 20.5355Z"
     fill="param(fill)"
     id="path1"
     style="fill-opacity:1" />
  <path
     d="M 14.0782,17.255023 17.874357,7.3478769 C 18.178732,6.5535279 17.446437,5.8212754 16.652098,6.125651 L 6.7450184,9.9217963 c -0.8976162,0.3439357 -0.9268,1.6026207 -0.043386,1.8710017 l 3.7582176,1.14195 c 0.292269,0.08885 0.516551,0.31313 0.6054,0.6054 l 1.141948,3.758217 c 0.268383,0.883403 1.527067,0.854219 1.871002,-0.04334 z"
     fill="param(fill)"
     id="path2"
     style="fill-opacity:1;stroke-width:1.08087" />
</svg>
