<?xml version="1.0" encoding="UTF-8" standalone="no"?>
<!-- Created with Inkscape (http://www.inkscape.org/) -->

<svg
   width="1188.861mm"
   height="841.02234mm"
   viewBox="0 0 1188.861 841.02233"
   version="1.1"
   id="svg1"
   xml:space="preserve"
   inkscape:version="1.4.2 (f4327f4, 2025-05-13)"
   sodipodi:docname="A0_L.svg"
   xmlns:inkscape="http://www.inkscape.org/namespaces/inkscape"
   xmlns:sodipodi="http://sodipodi.sourceforge.net/DTD/sodipodi-0.dtd"
   xmlns="http://www.w3.org/2000/svg"
   xmlns:svg="http://www.w3.org/2000/svg"><sodipodi:namedview
     id="namedview1"
     pagecolor="#ffffff"
     bordercolor="#000000"
     borderopacity="0.25"
     inkscape:showpageshadow="2"
     inkscape:pageopacity="0.0"
     inkscape:pagecheckerboard="true"
     inkscape:deskcolor="#d1d1d1"
     inkscape:document-units="mm"
     inkscape:zoom="0.25233411"
     inkscape:cx="2435.2633"
     inkscape:cy="1250.3264"
     inkscape:window-width="2560"
     inkscape:window-height="1351"
     inkscape:window-x="-9"
     inkscape:window-y="-4"
     inkscape:window-maximized="1"
     inkscape:current-layer="svg1"><inkscape:page
       x="-6.5386442e-12"
       y="0"
       width="1188.8611"
       height="841.02228"
       id="page3"
       margin="0"
       bleed="0" /></sodipodi:namedview><defs
     id="defs1" /><path
     id="path2"
     style="fill:#ffffff;stroke:none;stroke-width:45.35433107;stroke-linecap:round;stroke-linejoin:round;stroke-miterlimit:10;stroke-dasharray:none;stroke-opacity:1;fill-opacity:1"
     d="M 158927.96 224691 L 0.032216441 224691 L 0.032216441 -0.022359043 L 158927.96 -0.022359043 L 158927.96 224691 z M 157984.02 220911.99 L 157984.02 944.02062 L 943.97754 944.02062 L 943.97754 220911.99 L 157984.02 220911.99 z "
     transform="matrix(0,-0.00529167,-0.00529167,0,1188.8612,841.02223)"
     inkscape:label="Fill" /><g
     id="layer-oc2-4"
     inkscape:groupmode="layer"
     inkscape:label="_UTEC -Layout- Zeichnungsrahmen"
     transform="matrix(0.26458333,0,0,0.26458333,7.7735395e-5,0)"><path
       id="path1"
       d="M 0,224691 V 0 H 158928 V 224691 H 0"
       style="fill:none;stroke:#000000;stroke-width:45.35433107;stroke-linecap:round;stroke-linejoin:round;stroke-miterlimit:10;stroke-dasharray:none;stroke-opacity:1"
       transform="matrix(0,-0.02,-0.02,0,4493.3333,3178.6667)" /><path
       id="path2-5"
       d="M 944,220912 V 944 H 157984 V 220912 H 944"
       style="fill:none;stroke:#000000;stroke-width:45.35433107;stroke-linecap:round;stroke-linejoin:round;stroke-miterlimit:10;stroke-dasharray:none;stroke-opacity:1"
       transform="matrix(0,-0.02,-0.02,0,4493.3333,3178.6667)" /><path
       id="path4-1"
       d="M 0,185007 H 1228"
       style="fill:none;stroke:#000000;stroke-width:45.35433107;stroke-linecap:round;stroke-linejoin:round;stroke-miterlimit:10;stroke-dasharray:none;stroke-opacity:1"
       transform="matrix(0,-0.02,-0.02,0,4493.3333,3178.6667)" /><path
       id="path5-7"
       d="m 157700,185007 h 1228"
       style="fill:none;stroke:#000000;stroke-width:45.35433107;stroke-linecap:round;stroke-linejoin:round;stroke-miterlimit:10;stroke-dasharray:none;stroke-opacity:1"
       transform="matrix(0,-0.02,-0.02,0,4493.3333,3178.6667)" /><path
       id="path6-1"
       d="M 0,149101 H 1228"
       style="fill:none;stroke:#000000;stroke-width:45.35433107;stroke-linecap:round;stroke-linejoin:round;stroke-miterlimit:10;stroke-dasharray:none;stroke-opacity:1"
       transform="matrix(0,-0.02,-0.02,0,4493.3333,3178.6667)" /><path
       id="path7-1"
       d="m 157700,149101 h 1228"
       style="fill:none;stroke:#000000;stroke-width:45.35433107;stroke-linecap:round;stroke-linejoin:round;stroke-miterlimit:10;stroke-dasharray:none;stroke-opacity:1"
       transform="matrix(0,-0.02,-0.02,0,4493.3333,3178.6667)" /><path
       id="path8-5"
       d="M 0,113196 H 1228"
       style="fill:none;stroke:#000000;stroke-width:45.35433107;stroke-linecap:round;stroke-linejoin:round;stroke-miterlimit:10;stroke-dasharray:none;stroke-opacity:1"
       transform="matrix(0,-0.02,-0.02,0,4493.3333,3178.6667)" /><path
       id="path9-2"
       d="m 157700,113196 h 1228"
       style="fill:none;stroke:#000000;stroke-width:45.35433107;stroke-linecap:round;stroke-linejoin:round;stroke-miterlimit:10;stroke-dasharray:none;stroke-opacity:1"
       transform="matrix(0,-0.02,-0.02,0,4493.3333,3178.6667)" /><path
       id="path10-7"
       d="M 0,77291 H 1228"
       style="fill:none;stroke:#000000;stroke-width:45.35433107;stroke-linecap:round;stroke-linejoin:round;stroke-miterlimit:10;stroke-dasharray:none;stroke-opacity:1"
       transform="matrix(0,-0.02,-0.02,0,4493.3333,3178.6667)" /><path
       id="path11-6"
       d="m 157700,77291 h 1228"
       style="fill:none;stroke:#000000;stroke-width:45.35433107;stroke-linecap:round;stroke-linejoin:round;stroke-miterlimit:10;stroke-dasharray:none;stroke-opacity:1"
       transform="matrix(0,-0.02,-0.02,0,4493.3333,3178.6667)" /><path
       id="path12-1"
       d="m 157700,204849 h 567"
       style="fill:none;stroke:#000000;stroke-width:45.35433107;stroke-linecap:round;stroke-linejoin:round;stroke-miterlimit:10;stroke-dasharray:none;stroke-opacity:1"
       transform="matrix(0,-0.02,-0.02,0,4493.3333,3178.6667)" /><path
       id="path13-4"
       d="M 0,35905 H 1228"
       style="fill:none;stroke:#000000;stroke-width:45.35433107;stroke-linecap:round;stroke-linejoin:round;stroke-miterlimit:10;stroke-dasharray:none;stroke-opacity:1"
       transform="matrix(0,-0.02,-0.02,0,4493.3333,3178.6667)" /><path
       id="path14-2"
       d="m 157700,35905 h 1228"
       style="fill:none;stroke:#000000;stroke-width:45.35433107;stroke-linecap:round;stroke-linejoin:round;stroke-miterlimit:10;stroke-dasharray:none;stroke-opacity:1"
       transform="matrix(0,-0.02,-0.02,0,4493.3333,3178.6667)" /><path
       id="path15-3"
       d="M 0,56598 H 1228"
       style="fill:none;stroke:#000000;stroke-width:45.35433107;stroke-linecap:round;stroke-linejoin:round;stroke-miterlimit:10;stroke-dasharray:none;stroke-opacity:1"
       transform="matrix(0,-0.02,-0.02,0,4493.3333,3178.6667)" /><path
       id="path16-2"
       d="m 157700,56598 h 1228"
       style="fill:none;stroke:#000000;stroke-width:45.35433107;stroke-linecap:round;stroke-linejoin:round;stroke-miterlimit:10;stroke-dasharray:none;stroke-opacity:1"
       transform="matrix(0,-0.02,-0.02,0,4493.3333,3178.6667)" /><path
       id="path17-2"
       d="m 56125,224691 v -4062"
       style="fill:none;stroke:#000000;stroke-width:45.35433107;stroke-linecap:round;stroke-linejoin:round;stroke-miterlimit:10;stroke-dasharray:none;stroke-opacity:1"
       transform="matrix(0,-0.02,-0.02,0,4493.3333,3178.6667)" /><path
       id="path18-1"
       d="M 56125,1228 V 0"
       style="fill:none;stroke:#000000;stroke-width:45.35433107;stroke-linecap:round;stroke-linejoin:round;stroke-miterlimit:10;stroke-dasharray:none;stroke-opacity:1"
       transform="matrix(0,-0.02,-0.02,0,4493.3333,3178.6667)" /><path
       id="path19-6"
       d="m 112251,224691 v -4062"
       style="fill:none;stroke:#000000;stroke-width:45.35433107;stroke-linecap:round;stroke-linejoin:round;stroke-miterlimit:10;stroke-dasharray:none;stroke-opacity:1"
       transform="matrix(0,-0.02,-0.02,0,4493.3333,3178.6667)" /><path
       id="path20"
       d="M 112251,1228 V 0"
       style="fill:none;stroke:#000000;stroke-width:45.35433107;stroke-linecap:round;stroke-linejoin:round;stroke-miterlimit:10;stroke-dasharray:none;stroke-opacity:1"
       transform="matrix(0,-0.02,-0.02,0,4493.3333,3178.6667)" /><path
       id="path21"
       d="m 28062,224691 v -2031"
       style="fill:none;stroke:#000000;stroke-width:45.35433107;stroke-linecap:round;stroke-linejoin:round;stroke-miterlimit:10;stroke-dasharray:none;stroke-opacity:1"
       transform="matrix(0,-0.02,-0.02,0,4493.3333,3178.6667)" /></g></svg>
