<?xml version="1.0" encoding="UTF-8" standalone="no"?>
<!-- Created with Inkscape (http://www.inkscape.org/) -->

<svg
   width="841.02222mm"
   height="1188.8612mm"
   viewBox="0 0 841.02222 1188.8612"
   version="1.1"
   id="svg1"
   xml:space="preserve"
   inkscape:version="1.4.2 (f4327f4, 2025-05-13)"
   sodipodi:docname="A0_hoch.svg"
   xmlns:inkscape="http://www.inkscape.org/namespaces/inkscape"
   xmlns:sodipodi="http://sodipodi.sourceforge.net/DTD/sodipodi-0.dtd"
   xmlns="http://www.w3.org/2000/svg"
   xmlns:svg="http://www.w3.org/2000/svg"><sodipodi:namedview
     id="namedview1"
     pagecolor="#ffffff"
     bordercolor="#000000"
     borderopacity="0.25"
     inkscape:showpageshadow="2"
     inkscape:pageopacity="0.0"
     inkscape:pagecheckerboard="0"
     inkscape:deskcolor="#d1d1d1"
     inkscape:document-units="mm"
     inkscape:zoom="0.17842716"
     inkscape:cx="1527.2339"
     inkscape:cy="2255.8225"
     inkscape:window-width="2560"
     inkscape:window-height="1351"
     inkscape:window-x="2551"
     inkscape:window-y="-9"
     inkscape:window-maximized="1"
     inkscape:current-layer="layer-oc2"><inkscape:page
       x="0"
       y="0"
       width="841.02222"
       height="1188.8612"
       id="page2"
       margin="0"
       bleed="0" /></sodipodi:namedview><defs
     id="defs1" /><g
     id="layer-oc2"
     inkscape:groupmode="layer"
     inkscape:label="_UTEC -Layout- Zeichnungsrahmen"
     transform="matrix(0.26458333,0,0,0.26458334,3.7862579e-6,0)"><path
       id="path2"
       d="m 39685,223463 v 1228"
       style="fill:none;stroke:#000000;stroke-width:45.35433021;stroke-linecap:round;stroke-linejoin:round;stroke-miterlimit:10;stroke-dasharray:none;stroke-opacity:1"
       transform="matrix(0.02,0,0,-0.02,0,4493.3333)" /><path
       id="path3"
       d="m 19842,223463 v 567"
       style="fill:none;stroke:#000000;stroke-width:45.35433021;stroke-linecap:round;stroke-linejoin:round;stroke-miterlimit:10;stroke-dasharray:none;stroke-opacity:1"
       transform="matrix(0.02,0,0,-0.02,0,4493.3333)" /><path
       id="path4"
       d="m 123023,223463 v 1228"
       style="fill:none;stroke:#000000;stroke-width:45.35433021;stroke-linecap:round;stroke-linejoin:round;stroke-miterlimit:10;stroke-dasharray:none;stroke-opacity:1"
       transform="matrix(0.02,0,0,-0.02,0,4493.3333)" /><path
       id="path5"
       d="M 0,56125 H 4062"
       style="fill:none;stroke:#000000;stroke-width:45.35433021;stroke-linecap:round;stroke-linejoin:round;stroke-miterlimit:10;stroke-dasharray:none;stroke-opacity:1"
       transform="matrix(0.02,0,0,-0.02,0,4493.3333)" /><path
       id="path6"
       d="m 157700,56125 h 1228"
       style="fill:none;stroke:#000000;stroke-width:45.35433021;stroke-linecap:round;stroke-linejoin:round;stroke-miterlimit:10;stroke-dasharray:none;stroke-opacity:1"
       transform="matrix(0.02,0,0,-0.02,0,4493.3333)" /><path
       id="path7"
       d="M 0,112251 H 4062"
       style="fill:none;stroke:#000000;stroke-width:45.35433021;stroke-linecap:round;stroke-linejoin:round;stroke-miterlimit:10;stroke-dasharray:none;stroke-opacity:1"
       transform="matrix(0.02,0,0,-0.02,0,4493.3333)" /><path
       id="path8"
       d="m 157700,112251 h 1228"
       style="fill:none;stroke:#000000;stroke-width:45.35433021;stroke-linecap:round;stroke-linejoin:round;stroke-miterlimit:10;stroke-dasharray:none;stroke-opacity:1"
       transform="matrix(0.02,0,0,-0.02,0,4493.3333)" /><path
       id="path9"
       d="M 0,28062 H 2031"
       style="fill:none;stroke:#000000;stroke-width:45.35433021;stroke-linecap:round;stroke-linejoin:round;stroke-miterlimit:10;stroke-dasharray:none;stroke-opacity:1"
       transform="matrix(0.02,0,0,-0.02,0,4493.3333)" /><path
       id="path10"
       d="M 0,0 H 158928 V 224691 H 0 V 0"
       style="fill:none;stroke:#000000;stroke-width:45.35433021;stroke-linecap:round;stroke-linejoin:round;stroke-miterlimit:10;stroke-dasharray:none;stroke-opacity:1"
       transform="matrix(0.02,0,0,-0.02,0,4493.3333)" /><path
       id="path11"
       d="M 3779,944 H 157984 V 223747 H 3779 V 944"
       style="fill:none;stroke:#000000;stroke-width:45.35433021;stroke-linecap:round;stroke-linejoin:round;stroke-miterlimit:10;stroke-dasharray:none;stroke-opacity:1"
       transform="matrix(0.02,0,0,-0.02,0,4493.3333)" /><path
       id="path12"
       d="m 75590,223463 v 1228"
       style="fill:none;stroke:#000000;stroke-width:45.35433021;stroke-linecap:round;stroke-linejoin:round;stroke-miterlimit:10;stroke-dasharray:none;stroke-opacity:1"
       transform="matrix(0.02,0,0,-0.02,0,4493.3333)" /><path
       id="path13"
       d="m 99307,223463 v 1228"
       style="fill:none;stroke:#000000;stroke-width:45.35433021;stroke-linecap:round;stroke-linejoin:round;stroke-miterlimit:10;stroke-dasharray:none;stroke-opacity:1"
       transform="matrix(0.02,0,0,-0.02,0,4493.3333)" /><path
       id="path14"
       d="M 39685,1228 V 0"
       style="fill:none;stroke:#000000;stroke-width:45.35433021;stroke-linecap:round;stroke-linejoin:round;stroke-miterlimit:10;stroke-dasharray:none;stroke-opacity:1"
       transform="matrix(0.02,0,0,-0.02,0,4493.3333)" /><path
       id="path15"
       d="M 123023,1228 V 0"
       style="fill:none;stroke:#000000;stroke-width:45.35433021;stroke-linecap:round;stroke-linejoin:round;stroke-miterlimit:10;stroke-dasharray:none;stroke-opacity:1"
       transform="matrix(0.02,0,0,-0.02,0,4493.3333)" /><path
       id="path16"
       d="M 75590,1228 V 0"
       style="fill:none;stroke:#000000;stroke-width:45.35433021;stroke-linecap:round;stroke-linejoin:round;stroke-miterlimit:10;stroke-dasharray:none;stroke-opacity:1"
       transform="matrix(0.02,0,0,-0.02,0,4493.3333)" /><path
       id="path17"
       d="M 99307,1228 V 0"
       style="fill:none;stroke:#000000;stroke-width:45.35433021;stroke-linecap:round;stroke-linejoin:round;stroke-miterlimit:10;stroke-dasharray:none;stroke-opacity:1"
       transform="matrix(0.02,0,0,-0.02,0,4493.3333)" /><path
       id="path18"
       d="M 0,168471 H 4062"
       style="fill:none;stroke:#000000;stroke-width:45.35433021;stroke-linecap:round;stroke-linejoin:round;stroke-miterlimit:10;stroke-dasharray:none;stroke-opacity:1"
       transform="matrix(0.02,0,0,-0.02,0,4493.3333)" /><path
       id="path19"
       d="m 157700,168471 h 1228"
       style="fill:none;stroke:#000000;stroke-width:45.35433021;stroke-linecap:round;stroke-linejoin:round;stroke-miterlimit:10;stroke-dasharray:none;stroke-opacity:1"
       transform="matrix(0.02,0,0,-0.02,0,4493.3333)" /></g></svg>
