<?xml version="1.0" encoding="UTF-8" standalone="no"?>
<!-- Created with Inkscape (http://www.inkscape.org/) -->

<svg
   width="841.02222mm"
   height="594.0777mm"
   viewBox="0 0 841.02225 594.07769"
   version="1.1"
   id="svg1"
   xml:space="preserve"
   inkscape:version="1.4.2 (f4327f4, 2025-05-13)"
   sodipodi:docname="A1_L.svg"
   xmlns:inkscape="http://www.inkscape.org/namespaces/inkscape"
   xmlns:sodipodi="http://sodipodi.sourceforge.net/DTD/sodipodi-0.dtd"
   xmlns="http://www.w3.org/2000/svg"
   xmlns:svg="http://www.w3.org/2000/svg"><sodipodi:namedview
     id="namedview1"
     pagecolor="#ffffff"
     bordercolor="#000000"
     borderopacity="0.25"
     inkscape:showpageshadow="2"
     inkscape:pageopacity="0.0"
     inkscape:pagecheckerboard="0"
     inkscape:deskcolor="#d1d1d1"
     inkscape:document-units="mm"
     inkscape:zoom="0.17842716"
     inkscape:cx="1588.8837"
     inkscape:cy="1123.7079"
     inkscape:window-width="2560"
     inkscape:window-height="1351"
     inkscape:window-x="2551"
     inkscape:window-y="-9"
     inkscape:window-maximized="1"
     inkscape:current-layer="layer-oc2-2"><inkscape:page
       x="1.9667674e-05"
       y="0"
       width="841.02228"
       height="594.0777"
       id="page5"
       margin="0"
       bleed="0" /></sodipodi:namedview><defs
     id="defs1" /><g
     id="layer-oc2-2"
     inkscape:groupmode="layer"
     inkscape:label="_UTEC -Layout- Zeichnungsrahmen"
     transform="matrix(0.26458335,0,0,0.26458332,-1.3599993e-5,0)"><path
       id="path1"
       d="M 39685,0 V 1228"
       style="fill:none;stroke:#000000;stroke-width:45.35433021;stroke-linecap:round;stroke-linejoin:round;stroke-miterlimit:10;stroke-dasharray:none;stroke-opacity:1"
       transform="matrix(0.02,0,0,-0.02,0,2245.3333)" /><path
       id="path2-7"
       d="m 39685,111022 v 1228"
       style="fill:none;stroke:#000000;stroke-width:45.35433021;stroke-linecap:round;stroke-linejoin:round;stroke-miterlimit:10;stroke-dasharray:none;stroke-opacity:1"
       transform="matrix(0.02,0,0,-0.02,0,2245.3333)" /><path
       id="path3-9"
       d="M 75590,0 V 1228"
       style="fill:none;stroke:#000000;stroke-width:45.35433021;stroke-linecap:round;stroke-linejoin:round;stroke-miterlimit:10;stroke-dasharray:none;stroke-opacity:1"
       transform="matrix(0.02,0,0,-0.02,0,2245.3333)" /><path
       id="path4-5"
       d="m 75590,111022 v 1228"
       style="fill:none;stroke:#000000;stroke-width:45.35433021;stroke-linecap:round;stroke-linejoin:round;stroke-miterlimit:10;stroke-dasharray:none;stroke-opacity:1"
       transform="matrix(0.02,0,0,-0.02,0,2245.3333)" /><path
       id="path5-4"
       d="m 19842,111022 v 567"
       style="fill:none;stroke:#000000;stroke-width:45.35433021;stroke-linecap:round;stroke-linejoin:round;stroke-miterlimit:10;stroke-dasharray:none;stroke-opacity:1"
       transform="matrix(0.02,0,0,-0.02,0,2245.3333)" /><path
       id="path6-3"
       d="M 0,56125 H 4062"
       style="fill:none;stroke:#000000;stroke-width:45.35433021;stroke-linecap:round;stroke-linejoin:round;stroke-miterlimit:10;stroke-dasharray:none;stroke-opacity:1"
       transform="matrix(0.02,0,0,-0.02,0,2245.3333)" /><path
       id="path7-1"
       d="m 157700,56125 h 1228"
       style="fill:none;stroke:#000000;stroke-width:45.35433021;stroke-linecap:round;stroke-linejoin:round;stroke-miterlimit:10;stroke-dasharray:none;stroke-opacity:1"
       transform="matrix(0.02,0,0,-0.02,0,2245.3333)" /><path
       id="path8-2"
       d="M 0,28062 H 2031"
       style="fill:none;stroke:#000000;stroke-width:45.35433021;stroke-linecap:round;stroke-linejoin:round;stroke-miterlimit:10;stroke-dasharray:none;stroke-opacity:1"
       transform="matrix(0.02,0,0,-0.02,0,2245.3333)" /><path
       id="path9-3"
       d="M 0,0 H 158928 V 112250 H 0 V 0"
       style="fill:none;stroke:#000000;stroke-width:45.35433021;stroke-linecap:round;stroke-linejoin:round;stroke-miterlimit:10;stroke-dasharray:none;stroke-opacity:1"
       transform="matrix(0.02,0,0,-0.02,0,2245.3333)" /><path
       id="path10-3"
       d="M 3779,944 H 157984 V 111306 H 3779 V 944"
       style="fill:none;stroke:#000000;stroke-width:45.35433021;stroke-linecap:round;stroke-linejoin:round;stroke-miterlimit:10;stroke-dasharray:none;stroke-opacity:1"
       transform="matrix(0.02,0,0,-0.02,0,2245.3333)" /><path
       id="path11-4"
       d="M 123023,0 V 1228"
       style="fill:none;stroke:#000000;stroke-width:45.35433021;stroke-linecap:round;stroke-linejoin:round;stroke-miterlimit:10;stroke-dasharray:none;stroke-opacity:1"
       transform="matrix(0.02,0,0,-0.02,0,2245.3333)" /><path
       id="path12-1"
       d="m 123023,111022 v 1228"
       style="fill:none;stroke:#000000;stroke-width:45.35433021;stroke-linecap:round;stroke-linejoin:round;stroke-miterlimit:10;stroke-dasharray:none;stroke-opacity:1"
       transform="matrix(0.02,0,0,-0.02,0,2245.3333)" /><path
       id="path13-1"
       d="M 99307,0 V 1228"
       style="fill:none;stroke:#000000;stroke-width:45.35433021;stroke-linecap:round;stroke-linejoin:round;stroke-miterlimit:10;stroke-dasharray:none;stroke-opacity:1"
       transform="matrix(0.02,0,0,-0.02,0,2245.3333)" /><path
       id="path14"
       d="m 99307,111022 v 1228"
       style="fill:none;stroke:#000000;stroke-width:45.35433021;stroke-linecap:round;stroke-linejoin:round;stroke-miterlimit:10;stroke-dasharray:none;stroke-opacity:1"
       transform="matrix(0.02,0,0,-0.02,0,2245.3333)" /></g></svg>
