<?xml version="1.0" encoding="UTF-8" standalone="no"?>
<!-- Created with Inkscape (http://www.inkscape.org/) -->

<svg
   width="594.07776mm"
   height="841.02228mm"
   viewBox="0 0 594.07778 841.02227"
   version="1.1"
   id="svg1"
   xml:space="preserve"
   inkscape:version="1.4.2 (f4327f4, 2025-05-13)"
   sodipodi:docname="A1_P.svg"
   xmlns:inkscape="http://www.inkscape.org/namespaces/inkscape"
   xmlns:sodipodi="http://sodipodi.sourceforge.net/DTD/sodipodi-0.dtd"
   xmlns="http://www.w3.org/2000/svg"
   xmlns:svg="http://www.w3.org/2000/svg"><sodipodi:namedview
     id="namedview1"
     pagecolor="#ffffff"
     bordercolor="#000000"
     borderopacity="0.25"
     inkscape:showpageshadow="2"
     inkscape:pageopacity="0.0"
     inkscape:pagecheckerboard="true"
     inkscape:deskcolor="#d1d1d1"
     inkscape:document-units="mm"
     inkscape:zoom="0.17842716"
     inkscape:cx="1118.1033"
     inkscape:cy="1594.4882"
     inkscape:window-width="2560"
     inkscape:window-height="1351"
     inkscape:window-x="-9"
     inkscape:window-y="-4"
     inkscape:window-maximized="1"
     inkscape:current-layer="svg1"><inkscape:page
       x="-7.3130075e-05"
       y="0"
       width="594.07776"
       height="841.02228"
       id="page4"
       margin="0"
       bleed="0" /></sodipodi:namedview><defs
     id="defs1" /><path
     id="path1"
     style="fill:#ffffff;stroke:#000000;stroke-width:45.35433107;stroke-linecap:round;stroke-linejoin:round;stroke-miterlimit:10;stroke-dasharray:none;stroke-opacity:1;fill-opacity:1"
     d="M 0.0017344711 158927.97 L 0.0017344711 0.039691166 L 112250.03 0.039691166 L 112250.03 158927.97 L 0.0017344711 158927.97 z M 3779.0033 157984.02 L 111305.99 157984.02 L 111305.99 943.98441 L 3779.0033 943.98441 L 3779.0033 157984.02 z "
     transform="matrix(0.00529167,0,0,-0.00529167,-9.1782485e-6,841.02226)"
     inkscape:label="Fill" /><g
     id="layer-oc2"
     inkscape:groupmode="layer"
     inkscape:label="_UTEC -Layout- Zeichnungsrahmen"
     transform="matrix(0.26458332,0,0,0.26458334,-9.1782485e-6,0)"><path
       id="path2"
       d="m 39684,157700 v 1228"
       style="fill:none;stroke:#000000;stroke-width:45.35433107;stroke-linecap:round;stroke-linejoin:round;stroke-miterlimit:10;stroke-dasharray:none;stroke-opacity:1"
       transform="matrix(0.02,0,0,-0.02,0,3178.6667)" /><path
       id="path3"
       d="m 19842,157700 v 567"
       style="fill:none;stroke:#000000;stroke-width:45.35433107;stroke-linecap:round;stroke-linejoin:round;stroke-miterlimit:10;stroke-dasharray:none;stroke-opacity:1"
       transform="matrix(0.02,0,0,-0.02,0,3178.6667)" /><path
       id="path4"
       d="M 0,56125 H 4062"
       style="fill:none;stroke:#000000;stroke-width:45.35433107;stroke-linecap:round;stroke-linejoin:round;stroke-miterlimit:10;stroke-dasharray:none;stroke-opacity:1"
       transform="matrix(0.02,0,0,-0.02,0,3178.6667)" /><path
       id="path5"
       d="m 111022,56125 h 1228"
       style="fill:none;stroke:#000000;stroke-width:45.35433107;stroke-linecap:round;stroke-linejoin:round;stroke-miterlimit:10;stroke-dasharray:none;stroke-opacity:1"
       transform="matrix(0.02,0,0,-0.02,0,3178.6667)" /><path
       id="path6"
       d="M 0,112251 H 4062"
       style="fill:none;stroke:#000000;stroke-width:45.35433107;stroke-linecap:round;stroke-linejoin:round;stroke-miterlimit:10;stroke-dasharray:none;stroke-opacity:1"
       transform="matrix(0.02,0,0,-0.02,0,3178.6667)" /><path
       id="path7"
       d="m 111022,112251 h 1228"
       style="fill:none;stroke:#000000;stroke-width:45.35433107;stroke-linecap:round;stroke-linejoin:round;stroke-miterlimit:10;stroke-dasharray:none;stroke-opacity:1"
       transform="matrix(0.02,0,0,-0.02,0,3178.6667)" /><path
       id="path8"
       d="M 0,28062 H 2031"
       style="fill:none;stroke:#000000;stroke-width:45.35433107;stroke-linecap:round;stroke-linejoin:round;stroke-miterlimit:10;stroke-dasharray:none;stroke-opacity:1"
       transform="matrix(0.02,0,0,-0.02,0,3178.6667)" /><path
       id="path9"
       d="M 39684,1228 V 0"
       style="fill:none;stroke:#000000;stroke-width:45.35433107;stroke-linecap:round;stroke-linejoin:round;stroke-miterlimit:10;stroke-dasharray:none;stroke-opacity:1"
       transform="matrix(0.02,0,0,-0.02,0,3178.6667)" /><path
       id="path10"
       d="M 0,0 H 112250 V 158928 H 0 V 0"
       style="fill:none;stroke:#000000;stroke-width:45.35433107;stroke-linecap:round;stroke-linejoin:round;stroke-miterlimit:10;stroke-dasharray:none;stroke-opacity:1"
       transform="matrix(0.02,0,0,-0.02,0,3178.6667)" /><path
       id="path11"
       d="M 3779,944 H 111306 V 157984 H 3779 V 944"
       style="fill:none;stroke:#000000;stroke-width:45.35433107;stroke-linecap:round;stroke-linejoin:round;stroke-miterlimit:10;stroke-dasharray:none;stroke-opacity:1"
       transform="matrix(0.02,0,0,-0.02,0,3178.6667)" /><path
       id="path12"
       d="m 75967,157700 v 1228"
       style="fill:none;stroke:#000000;stroke-width:45.35433107;stroke-linecap:round;stroke-linejoin:round;stroke-miterlimit:10;stroke-dasharray:none;stroke-opacity:1"
       transform="matrix(0.02,0,0,-0.02,0,3178.6667)" /><path
       id="path13"
       d="M 75967,1228 V 0"
       style="fill:none;stroke:#000000;stroke-width:45.35433107;stroke-linecap:round;stroke-linejoin:round;stroke-miterlimit:10;stroke-dasharray:none;stroke-opacity:1"
       transform="matrix(0.02,0,0,-0.02,0,3178.6667)" /></g></svg>
