<?xml version="1.0" encoding="UTF-8" standalone="no"?>
<!-- Created with Inkscape (http://www.inkscape.org/) -->

<svg
   width="594.07776mm"
   height="420.15833mm"
   viewBox="0 0 594.07778 420.15832"
   version="1.1"
   id="svg1"
   xml:space="preserve"
   inkscape:version="1.4.2 (f4327f4, 2025-05-13)"
   sodipodi:docname="A2_L.svg"
   xmlns:inkscape="http://www.inkscape.org/namespaces/inkscape"
   xmlns:sodipodi="http://sodipodi.sourceforge.net/DTD/sodipodi-0.dtd"
   xmlns="http://www.w3.org/2000/svg"
   xmlns:svg="http://www.w3.org/2000/svg"><sodipodi:namedview
     id="namedview1"
     pagecolor="#ffffff"
     bordercolor="#000000"
     borderopacity="0.25"
     inkscape:showpageshadow="2"
     inkscape:pageopacity="0.0"
     inkscape:pagecheckerboard="true"
     inkscape:deskcolor="#d1d1d1"
     inkscape:document-units="mm"
     inkscape:zoom="0.17842716"
     inkscape:cx="1123.7078"
     inkscape:cy="793.0407"
     inkscape:window-width="2560"
     inkscape:window-height="1351"
     inkscape:window-x="2551"
     inkscape:window-y="-9"
     inkscape:window-maximized="1"
     inkscape:current-layer="svg1"><inkscape:page
       x="0"
       y="0"
       width="594.07776"
       height="420.15833"
       id="page7"
       margin="0"
       bleed="0" /></sodipodi:namedview><defs
     id="defs1" /><path
     id="path2"
     style="fill:#ffffff;stroke:#000000;stroke-width:45.35433107;stroke-linecap:round;stroke-linejoin:round;stroke-miterlimit:10;stroke-dasharray:none;stroke-opacity:1;fill-opacity:1"
     d="M -0.0022685606 79368.992 L -0.0022685606 -0.00062992085 L 112250.02 -0.00062992085 L 112250.02 79368.992 L -0.0022685606 79368.992 z M 3778.9993 78425.048 L 111305.98 78425.048 L 111305.98 944.04174 L 3778.9993 944.04174 L 3778.9993 78425.048 z "
     transform="matrix(0.00529167,0,0,-0.00529167,1.2004474e-5,420.15833)"
     inkscape:label="Fill" /><g
     id="layer-oc2-9"
     inkscape:groupmode="layer"
     inkscape:label="_UTEC -Layout- Zeichnungsrahmen"
     transform="matrix(0.26458333,0,0,0.26458333,1.2004474e-5,0)"><path
       id="path1"
       d="M 39684,0 V 1228"
       style="fill:none;stroke:#000000;stroke-width:45.35433107;stroke-linecap:round;stroke-linejoin:round;stroke-miterlimit:10;stroke-dasharray:none;stroke-opacity:1"
       transform="matrix(0.02,0,0,-0.02,0,1588)" /><path
       id="path2-3"
       d="m 39684,78141 v 1228"
       style="fill:none;stroke:#000000;stroke-width:45.35433107;stroke-linecap:round;stroke-linejoin:round;stroke-miterlimit:10;stroke-dasharray:none;stroke-opacity:1"
       transform="matrix(0.02,0,0,-0.02,0,1588)" /><path
       id="path3-1"
       d="m 19842,78141 v 567"
       style="fill:none;stroke:#000000;stroke-width:45.35433107;stroke-linecap:round;stroke-linejoin:round;stroke-miterlimit:10;stroke-dasharray:none;stroke-opacity:1"
       transform="matrix(0.02,0,0,-0.02,0,1588)" /><path
       id="path4-9"
       d="M 0,56125 H 4062"
       style="fill:none;stroke:#000000;stroke-width:45.35433107;stroke-linecap:round;stroke-linejoin:round;stroke-miterlimit:10;stroke-dasharray:none;stroke-opacity:1"
       transform="matrix(0.02,0,0,-0.02,0,1588)" /><path
       id="path5-8"
       d="M 0,28062 H 2031"
       style="fill:none;stroke:#000000;stroke-width:45.35433107;stroke-linecap:round;stroke-linejoin:round;stroke-miterlimit:10;stroke-dasharray:none;stroke-opacity:1"
       transform="matrix(0.02,0,0,-0.02,0,1588)" /><path
       id="path6-6"
       d="M 0,0 H 112250 V 79369 H 0 V 0"
       style="fill:none;stroke:#000000;stroke-width:45.35433107;stroke-linecap:round;stroke-linejoin:round;stroke-miterlimit:10;stroke-dasharray:none;stroke-opacity:1"
       transform="matrix(0.02,0,0,-0.02,0,1588)" /><path
       id="path7-5"
       d="M 3779,944 H 111306 V 78425 H 3779 V 944"
       style="fill:none;stroke:#000000;stroke-width:45.35433107;stroke-linecap:round;stroke-linejoin:round;stroke-miterlimit:10;stroke-dasharray:none;stroke-opacity:1"
       transform="matrix(0.02,0,0,-0.02,0,1588)" /><path
       id="path8-0"
       d="M 75967,0 V 1228"
       style="fill:none;stroke:#000000;stroke-width:45.35433107;stroke-linecap:round;stroke-linejoin:round;stroke-miterlimit:10;stroke-dasharray:none;stroke-opacity:1"
       transform="matrix(0.02,0,0,-0.02,0,1588)" /><path
       id="path9-2"
       d="m 75967,78141 v 1228"
       style="fill:none;stroke:#000000;stroke-width:45.35433107;stroke-linecap:round;stroke-linejoin:round;stroke-miterlimit:10;stroke-dasharray:none;stroke-opacity:1"
       transform="matrix(0.02,0,0,-0.02,0,1588)" /><path
       id="path10-8"
       d="m 112250,56125 h -1228"
       style="fill:none;stroke:#000000;stroke-width:45.35433107;stroke-linecap:round;stroke-linejoin:round;stroke-miterlimit:10;stroke-dasharray:none;stroke-opacity:1"
       transform="matrix(0.02,0,0,-0.02,0,1588)" /></g></svg>
