<?xml version="1.0" encoding="UTF-8" standalone="no"?>
<!-- Created with Inkscape (http://www.inkscape.org/) -->

<svg
   width="420.15833mm"
   height="297.03891mm"
   viewBox="0 0 420.15834 297.03891"
   version="1.1"
   id="svg1"
   xml:space="preserve"
   inkscape:version="1.4.2 (f4327f4, 2025-05-13)"
   sodipodi:docname="A3_L.svg"
   xmlns:inkscape="http://www.inkscape.org/namespaces/inkscape"
   xmlns:sodipodi="http://sodipodi.sourceforge.net/DTD/sodipodi-0.dtd"
   xmlns="http://www.w3.org/2000/svg"
   xmlns:svg="http://www.w3.org/2000/svg"><sodipodi:namedview
     id="namedview1"
     pagecolor="#ffffff"
     bordercolor="#000000"
     borderopacity="0.25"
     inkscape:showpageshadow="2"
     inkscape:pageopacity="0.0"
     inkscape:pagecheckerboard="true"
     inkscape:deskcolor="#d1d1d1"
     inkscape:document-units="mm"
     inkscape:zoom="0.50466822"
     inkscape:cx="981.83318"
     inkscape:cy="761.88669"
     inkscape:window-width="2560"
     inkscape:window-height="1351"
     inkscape:window-x="2551"
     inkscape:window-y="-9"
     inkscape:window-maximized="1"
     inkscape:current-layer="svg1"><inkscape:page
       x="0"
       y="0"
       width="420.15833"
       height="297.03891"
       id="page9"
       margin="0"
       bleed="0" /></sodipodi:namedview><defs
     id="defs1" /><path
     id="path2"
     style="fill:#ffffff;stroke:#000000;stroke-width:45.35432936;stroke-linecap:round;stroke-linejoin:round;stroke-miterlimit:10;stroke-dasharray:none;stroke-opacity:1;fill-opacity:1"
     d="M 0.0010503093 56124.023 L 0.0010503093 0.034651799 L 79368.994 0.034651799 L 79368.994 56124.023 L 0.0010503093 56124.023 z M 3779.0026 55179.98 L 78424.952 55179.98 L 78424.952 943.97937 L 3779.0026 943.97937 L 3779.0026 55179.98 z "
     transform="matrix(0.00529167,0,0,-0.00529167,-5.5578902e-6,297.0389)"
     inkscape:label="Fill" /><g
     id="layer-oc2-0"
     inkscape:groupmode="layer"
     inkscape:label="_UTEC -Layout- Zeichnungsrahmen"
     transform="matrix(0.26458334,0,0,0.26458334,-5.5578902e-6,0)"><path
       id="path1"
       d="M 43464,0 V 1228"
       style="fill:none;stroke:#000000;stroke-width:45.35432936;stroke-linecap:round;stroke-linejoin:round;stroke-miterlimit:10;stroke-dasharray:none;stroke-opacity:1"
       transform="matrix(0.02,0,0,-0.02,0,1122.6667)" /><path
       id="path2-9"
       d="m 43464,54896 v 1228"
       style="fill:none;stroke:#000000;stroke-width:45.35432936;stroke-linecap:round;stroke-linejoin:round;stroke-miterlimit:10;stroke-dasharray:none;stroke-opacity:1"
       transform="matrix(0.02,0,0,-0.02,0,1122.6667)" /><path
       id="path3-0"
       d="M 0,28062 H 2031"
       style="fill:none;stroke:#000000;stroke-width:45.35432936;stroke-linecap:round;stroke-linejoin:round;stroke-miterlimit:10;stroke-dasharray:none;stroke-opacity:1"
       transform="matrix(0.02,0,0,-0.02,0,1122.6667)" /><path
       id="path4-0"
       d="M 0,0 H 79369 V 56124 H 0 V 0"
       style="fill:none;stroke:#000000;stroke-width:45.35432936;stroke-linecap:round;stroke-linejoin:round;stroke-miterlimit:10;stroke-dasharray:none;stroke-opacity:1"
       transform="matrix(0.02,0,0,-0.02,0,1122.6667)" /><path
       id="path5-6"
       d="M 3779,944 H 78425 V 55180 H 3779 V 944"
       style="fill:none;stroke:#000000;stroke-width:45.35432936;stroke-linecap:round;stroke-linejoin:round;stroke-miterlimit:10;stroke-dasharray:none;stroke-opacity:1"
       transform="matrix(0.02,0,0,-0.02,0,1122.6667)" /><path
       id="path6-1"
       d="M 23622,0 V 1228"
       style="fill:none;stroke:#000000;stroke-width:45.35432936;stroke-linecap:round;stroke-linejoin:round;stroke-miterlimit:10;stroke-dasharray:none;stroke-opacity:1"
       transform="matrix(0.02,0,0,-0.02,0,1122.6667)" /><path
       id="path7-3"
       d="m 23622,54896 v 1228"
       style="fill:none;stroke:#000000;stroke-width:45.35432936;stroke-linecap:round;stroke-linejoin:round;stroke-miterlimit:10;stroke-dasharray:none;stroke-opacity:1"
       transform="matrix(0.02,0,0,-0.02,0,1122.6667)" /></g></svg>
